<svg xmlns="http://www.w3.org/2000/svg" xmlns:xlink="http://www.w3.org/1999/xlink" width="1920" zoomAndPan="magnify" viewBox="0 0 1440 809.999993" height="1080" preserveAspectRatio="xMidYMid meet" version="1.0"><defs><clipPath id="7329b946e0"><path d="M 631 196 L 849 196 L 849 304 L 631 304 Z M 631 196 " clip-rule="nonzero"/></clipPath><clipPath id="eb2fabcba1"><path d="M 582.175781 81 L 923.847656 128.8125 L 890.691406 365.753906 L 549.019531 317.941406 Z M 582.175781 81 " clip-rule="nonzero"/></clipPath><clipPath id="1d96b1e6d2"><path d="M 582.175781 81 L 923.847656 128.8125 L 890.691406 365.753906 L 549.019531 317.941406 Z M 582.175781 81 " clip-rule="nonzero"/></clipPath><clipPath id="23c4a12671"><path d="M 582.175781 81 L 923.847656 128.8125 L 890.691406 365.753906 L 549.019531 317.941406 Z M 582.175781 81 " clip-rule="nonzero"/></clipPath><clipPath id="29bb844ad3"><path d="M 551 106 L 916 106 L 916 321 L 551 321 Z M 551 106 " clip-rule="nonzero"/></clipPath><clipPath id="657aa67d21"><path d="M 582.175781 81 L 923.847656 128.8125 L 890.691406 365.753906 L 549.019531 317.941406 Z M 582.175781 81 " clip-rule="nonzero"/></clipPath><clipPath id="dcb489abb2"><path d="M 582.175781 81 L 923.847656 128.8125 L 890.691406 365.753906 L 549.019531 317.941406 Z M 582.175781 81 " clip-rule="nonzero"/></clipPath><clipPath id="f23818ebd8"><path d="M 582.175781 81 L 923.847656 128.8125 L 890.691406 365.753906 L 549.019531 317.941406 Z M 582.175781 81 " clip-rule="nonzero"/></clipPath></defs><path fill="#000000" d="M 940.066406 272.742188 C 913.28125 242.230469 884.957031 236.265625 849.296875 253.308594 C 839.0625 258.59375 829.675781 265.242188 819.097656 271.71875 C 816.003906 269.4375 812.84375 267.253906 809.617188 265.160156 C 806.394531 263.066406 803.109375 261.074219 799.765625 259.175781 C 796.421875 257.277344 793.023438 255.480469 789.570312 253.785156 C 786.121094 252.089844 782.621094 250.5 779.078125 249.011719 C 775.53125 247.523438 771.945312 246.140625 768.316406 244.867188 C 764.691406 243.59375 761.027344 242.425781 757.332031 241.367188 C 753.632812 240.308594 749.910156 239.363281 746.15625 238.527344 C 742.402344 237.691406 738.625 236.964844 734.832031 236.351562 C 731.035156 235.742188 727.222656 235.242188 723.394531 234.855469 C 719.570312 234.46875 715.734375 234.195312 711.894531 234.039062 C 708.050781 233.878906 704.207031 233.835938 700.363281 233.90625 C 696.515625 233.972656 692.679688 234.15625 688.84375 234.453125 C 685.007812 234.753906 681.1875 235.164062 677.378906 235.6875 C 673.570312 236.210938 669.777344 236.847656 666.007812 237.597656 C 662.234375 238.347656 658.488281 239.207031 654.769531 240.179688 C 651.046875 241.152344 647.359375 242.234375 643.703125 243.421875 C 634.832031 233.367188 626.640625 223.480469 618.28125 214.789062 C 616.242188 212.554688 614.066406 210.464844 611.761719 208.507812 C 609.453125 206.554688 607.03125 204.753906 604.492188 203.109375 C 601.957031 201.464844 599.324219 199.988281 596.597656 198.679688 C 593.871094 197.371094 591.070312 196.242188 588.199219 195.292969 C 585.328125 194.339844 582.410156 193.574219 579.441406 192.996094 C 576.472656 192.417969 573.480469 192.03125 570.460938 191.835938 C 567.441406 191.640625 564.421875 191.636719 561.40625 191.828125 C 558.386719 192.015625 555.390625 192.398438 552.421875 192.96875 C 540.492188 197.546875 529.117188 203.230469 518.296875 210.015625 C 463.359375 232.855469 446.296875 260.808594 451.753906 316.207031 C 460.628906 333.167969 471.039062 349.132812 482.980469 364.101562 C 497.132812 375.945312 512.375 386.171875 528.703125 394.78125 C 528.703125 403.476562 528.703125 414.042969 528.703125 424.441406 C 528.703125 434.839844 531.433594 445.238281 533.3125 458.53125 C 525.121094 465.179688 517.957031 470.292969 511.8125 475.578125 C 508.679688 478.378906 505.636719 481.28125 502.6875 484.28125 C 499.742188 487.28125 496.890625 490.371094 494.140625 493.554688 C 491.390625 496.734375 488.746094 500 486.207031 503.351562 C 483.667969 506.703125 481.238281 510.132812 478.917969 513.640625 C 476.597656 517.148438 474.390625 520.726562 472.300781 524.375 C 470.210938 528.023438 468.242188 531.734375 466.390625 535.507812 C 464.539062 539.285156 462.808594 543.113281 461.203125 547 C 459.597656 550.886719 458.121094 554.816406 456.765625 558.796875 C 455.414062 562.777344 454.191406 566.800781 453.09375 570.859375 C 452 574.917969 451.039062 579.007812 450.207031 583.128906 C 449.375 587.246094 448.675781 591.390625 448.109375 595.554688 C 447.542969 599.722656 447.109375 603.902344 446.8125 608.09375 C 446.515625 612.289062 446.351562 616.484375 446.324219 620.6875 C 446.296875 624.894531 446.40625 629.09375 446.648438 633.289062 C 446.886719 637.488281 447.265625 641.671875 447.777344 645.84375 C 448.285156 650.015625 448.929688 654.167969 449.707031 658.300781 C 458.238281 706.195312 492.535156 728.355469 540.476562 721.367188 C 571.1875 716.933594 603.4375 732.105469 633.636719 715.398438 C 635.855469 714.207031 640.800781 718.128906 644.554688 718.128906 C 678.679688 718.128906 712.804688 718.128906 746.925781 716.082031 C 762.113281 715.058594 770.132812 703.296875 763.988281 686.59375 C 762.113281 681.308594 760.746094 676.027344 760.066406 673.980469 L 798.453125 570.6875 C 794.871094 555.6875 805.449219 540.519531 825.921875 529.949219 C 828.832031 528.488281 831.652344 526.875 834.390625 525.117188 C 837.128906 523.355469 839.765625 521.457031 842.304688 519.421875 C 844.839844 517.386719 847.265625 515.226562 849.578125 512.933594 C 851.890625 510.644531 854.074219 508.242188 856.132812 505.722656 C 858.191406 503.207031 860.113281 500.585938 861.898438 497.867188 C 863.683594 495.148438 865.320312 492.339844 866.8125 489.449219 C 868.300781 486.558594 869.636719 483.597656 870.816406 480.566406 C 871.996094 477.535156 873.011719 474.453125 873.867188 471.316406 L 881.546875 447.621094 C 890.929688 447.621094 898.609375 447.621094 906.285156 446.089844 C 910.128906 445.378906 913.921875 444.457031 917.664062 443.332031 C 921.40625 442.207031 925.078125 440.882812 928.675781 439.355469 C 932.273438 437.832031 935.777344 436.113281 939.183594 434.203125 C 942.59375 432.296875 945.890625 430.207031 949.070312 427.941406 C 952.253906 425.671875 955.300781 423.238281 958.21875 420.636719 C 961.132812 418.035156 963.898438 415.285156 966.511719 412.382812 C 969.125 409.480469 971.574219 406.441406 973.855469 403.273438 C 976.136719 400.101562 978.242188 396.820312 980.164062 393.417969 C 1002.171875 360.183594 990.230469 317.570312 959.347656 289.105469 C 952.59375 284.035156 946.167969 278.582031 940.066406 272.742188 Z M 764.671875 615.175781 C 756.652344 643.46875 748.972656 669.71875 740.273438 700.402344 L 714.167969 701.765625 C 711.609375 685.742188 709.390625 670.914062 706.832031 654.71875 L 696.082031 589.097656 C 695.375 587.140625 694.425781 585.3125 693.242188 583.605469 C 692.054688 581.894531 690.667969 580.371094 689.082031 579.023438 C 687.496094 577.679688 685.761719 576.558594 683.882812 575.667969 C 682.003906 574.773438 680.042969 574.136719 677.996094 573.757812 C 682.261719 595.914062 687.210938 615.855469 689.769531 636.140625 C 692.328125 656.425781 691.816406 677.730469 693.183594 704.320312 L 655.644531 704.320312 C 644.554688 685.570312 634.488281 671.425781 627.152344 655.914062 C 617.769531 635.96875 610.089844 615.175781 601.902344 592.503906 C 553.445312 568.8125 531.945312 571.199219 512.15625 609.550781 C 522.5625 605.800781 529.214844 604.097656 534.847656 601.367188 C 558.5625 590.121094 570.507812 591.484375 583.644531 607.335938 C 584.523438 608.246094 585.363281 609.195312 586.15625 610.183594 C 586.953125 611.167969 587.699219 612.191406 588.402344 613.246094 C 589.105469 614.300781 589.757812 615.382812 590.363281 616.496094 C 590.96875 617.609375 591.523438 618.75 592.023438 619.914062 C 592.523438 621.074219 592.972656 622.257812 593.367188 623.464844 C 593.761719 624.667969 594.101562 625.886719 594.386719 627.121094 C 594.671875 628.355469 594.902344 629.601562 595.074219 630.855469 C 595.246094 632.109375 595.359375 633.371094 595.417969 634.636719 C 595.476562 635.902344 595.476562 637.167969 595.421875 638.433594 C 595.367188 639.699219 595.253906 640.957031 595.082031 642.214844 C 594.914062 643.46875 594.6875 644.714844 594.402344 645.949219 C 594.121094 647.183594 593.785156 648.402344 593.390625 649.609375 C 593 650.8125 592.550781 651.996094 592.050781 653.160156 C 591.554688 654.324219 591 655.464844 590.398438 656.578125 C 589.796875 657.695312 589.144531 658.78125 588.445312 659.835938 C 587.742188 660.890625 586.996094 661.914062 586.203125 662.902344 C 582.960938 667.675781 578.355469 671.425781 574.773438 676.027344 C 571.1875 680.628906 568.628906 684.71875 562.316406 693.070312 L 612.136719 690.683594 C 608.726562 711.992188 595.074219 707.730469 583.644531 707.730469 C 567.777344 707.730469 551.738281 705.683594 535.871094 707.730469 C 534.859375 707.910156 533.847656 708.0625 532.828125 708.191406 C 531.8125 708.320312 530.789062 708.425781 529.769531 708.503906 C 528.746094 708.582031 527.71875 708.636719 526.695312 708.664062 C 525.667969 708.691406 524.644531 708.695312 523.617188 708.671875 C 522.59375 708.648438 521.566406 708.601562 520.542969 708.527344 C 519.519531 708.453125 518.5 708.355469 517.480469 708.230469 C 516.460938 708.105469 515.449219 707.957031 514.4375 707.785156 C 513.425781 707.609375 512.421875 707.410156 511.417969 707.1875 C 510.417969 706.960938 509.421875 706.714844 508.433594 706.441406 C 507.445312 706.167969 506.464844 705.867188 505.488281 705.546875 C 504.515625 705.222656 503.550781 704.878906 502.59375 704.507812 C 501.636719 704.136719 500.6875 703.746094 499.75 703.328125 C 498.8125 702.910156 497.886719 702.472656 496.972656 702.007812 C 496.054688 701.546875 495.152344 701.0625 494.261719 700.554688 C 493.371094 700.046875 492.492188 699.519531 491.625 698.96875 C 490.761719 698.417969 489.910156 697.84375 489.074219 697.253906 C 488.234375 696.660156 487.414062 696.046875 486.609375 695.410156 C 485.800781 694.777344 485.011719 694.125 484.238281 693.453125 C 483.460938 692.78125 482.707031 692.089844 481.964844 691.378906 C 481.226562 690.667969 480.503906 689.9375 479.800781 689.195312 C 479.097656 688.449219 478.414062 687.683594 477.746094 686.90625 C 477.082031 686.125 476.433594 685.328125 475.808594 684.515625 C 475.183594 683.707031 474.578125 682.878906 473.992188 682.035156 C 473.40625 681.195312 472.839844 680.339844 472.300781 679.46875 C 471.757812 678.597656 471.234375 677.714844 470.734375 676.820312 C 470.238281 675.925781 469.761719 675.019531 469.304688 674.097656 C 468.851562 673.179688 468.421875 672.25 468.015625 671.308594 C 467.605469 670.367188 467.222656 669.417969 466.859375 668.460938 C 466.5 667.5 466.164062 666.53125 465.851562 665.554688 C 465.539062 664.578125 465.25 663.597656 464.984375 662.605469 C 464.722656 661.613281 464.480469 660.617188 464.269531 659.617188 C 464.054688 658.613281 463.863281 657.605469 463.699219 656.59375 C 462.992188 652.316406 462.4375 648.019531 462.035156 643.703125 C 461.628906 639.382812 461.378906 635.058594 461.277344 630.722656 C 461.179688 626.390625 461.234375 622.054688 461.441406 617.722656 C 461.648438 613.394531 462.003906 609.074219 462.515625 604.769531 C 463.027344 600.464844 463.6875 596.179688 464.5 591.921875 C 465.3125 587.660156 466.273438 583.4375 467.386719 579.246094 C 468.496094 575.050781 469.753906 570.90625 471.15625 566.800781 C 472.558594 562.699219 474.101562 558.648438 475.792969 554.65625 C 477.480469 550.660156 479.304688 546.730469 481.269531 542.863281 C 483.234375 538.996094 485.335938 535.203125 487.566406 531.484375 C 489.796875 527.765625 492.160156 524.132812 494.648438 520.578125 C 497.136719 517.027344 499.746094 513.566406 502.476562 510.195312 C 505.210938 506.828125 508.058594 503.558594 511.019531 500.390625 C 513.984375 497.222656 517.054688 494.160156 520.234375 491.207031 C 523.410156 488.253906 526.6875 485.417969 530.066406 482.695312 C 533.445312 479.972656 536.917969 477.371094 540.476562 474.894531 C 599.339844 537.28125 676.972656 545.289062 757.335938 546.3125 C 765.789062 547.28125 774.09375 548.984375 782.246094 551.425781 C 782.160156 552.449219 782.160156 553.472656 782.246094 554.496094 C 794.1875 560.121094 764.671875 615.175781 764.671875 615.175781 Z M 971.460938 374.328125 C 966.546875 383.351562 960.707031 391.726562 953.945312 399.460938 C 947.179688 407.195312 939.652344 414.101562 931.367188 420.179688 C 924.5625 423.511719 917.5 426.152344 910.179688 428.101562 C 902.859375 430.050781 895.417969 431.273438 887.859375 431.769531 C 881.773438 432.425781 875.6875 432.425781 869.601562 431.769531 C 866.847656 439.054688 864.632812 446.496094 862.949219 454.101562 C 862.6875 456.363281 862.335938 458.613281 861.890625 460.847656 C 861.441406 463.082031 860.902344 465.292969 860.269531 467.484375 C 859.636719 469.671875 858.914062 471.832031 858.101562 473.960938 C 857.289062 476.089844 856.390625 478.183594 855.402344 480.238281 C 854.414062 482.289062 853.34375 484.300781 852.1875 486.265625 C 851.03125 488.230469 849.796875 490.140625 848.480469 492.003906 C 847.164062 493.863281 845.773438 495.667969 844.308594 497.414062 C 842.839844 499.160156 841.304688 500.839844 839.695312 502.457031 C 838.089844 504.074219 836.417969 505.621094 834.679688 507.097656 C 832.945312 508.578125 831.148438 509.980469 829.296875 511.304688 C 827.441406 512.632812 825.535156 513.882812 823.578125 515.050781 C 821.621094 516.21875 819.617188 517.304688 817.566406 518.304688 C 815.519531 519.308594 813.429688 520.222656 811.304688 521.046875 C 809.179688 521.875 807.023438 522.613281 804.835938 523.257812 C 802.648438 523.90625 800.4375 524.460938 798.207031 524.925781 C 795.972656 525.386719 793.722656 525.753906 791.457031 526.03125 C 783.175781 527.625 774.84375 528.867188 766.457031 529.757812 C 758.070312 530.644531 749.660156 531.175781 741.226562 531.351562 C 732.796875 531.523438 724.371094 531.339844 715.953125 530.796875 C 707.539062 530.257812 699.160156 529.359375 690.820312 528.105469 C 682.480469 526.851562 674.207031 525.246094 666.003906 523.292969 C 657.800781 521.335938 649.695312 519.035156 641.6875 516.390625 C 633.679688 513.746094 625.796875 510.765625 618.042969 507.453125 C 610.289062 504.136719 602.691406 500.5 595.246094 496.542969 C 592.945312 495.585938 590.695312 494.527344 588.488281 493.375 C 586.28125 492.21875 584.128906 490.96875 582.03125 489.625 C 579.933594 488.285156 577.902344 486.851562 575.929688 485.332031 C 573.957031 483.808594 572.058594 482.203125 570.226562 480.515625 C 568.394531 478.828125 566.640625 477.066406 564.964844 475.226562 C 563.289062 473.382812 561.699219 471.472656 560.1875 469.492188 C 558.679688 467.511719 557.261719 465.46875 555.933594 463.367188 C 554.601562 461.261719 553.367188 459.101562 552.226562 456.890625 C 551.085938 454.675781 550.046875 452.417969 549.101562 450.117188 C 548.160156 447.8125 547.320312 445.472656 546.585938 443.09375 C 545.847656 440.71875 545.214844 438.3125 544.691406 435.878906 C 544.164062 433.449219 543.746094 430.996094 543.433594 428.527344 C 543.121094 426.058594 542.921875 423.582031 542.824219 421.09375 C 542.730469 418.609375 542.746094 416.121094 542.871094 413.636719 C 542.996094 411.152344 543.226562 408.675781 543.570312 406.210938 C 543.910156 403.746094 544.359375 401.300781 544.914062 398.875 C 545.6875 394.1875 546.027344 389.472656 545.9375 384.726562 C 545.9375 383.703125 545.9375 383.023438 544.402344 379.441406 C 537.066406 376.886719 527.339844 374.328125 519.320312 371.089844 C 517.382812 369.996094 515.484375 368.84375 513.621094 367.625 C 511.761719 366.40625 509.941406 365.125 508.164062 363.789062 C 506.390625 362.449219 504.660156 361.050781 502.976562 359.597656 C 501.292969 358.144531 499.660156 356.636719 498.074219 355.074219 C 496.492188 353.511719 494.960938 351.902344 493.484375 350.238281 C 492.007812 348.574219 490.589844 346.863281 489.226562 345.105469 C 487.863281 343.351562 486.558594 341.550781 485.316406 339.707031 C 484.074219 337.863281 482.890625 335.980469 481.773438 334.058594 C 480.65625 332.136719 479.601562 330.179688 478.613281 328.1875 C 477.625 326.195312 476.703125 324.171875 475.847656 322.121094 C 474.996094 320.066406 474.210938 317.988281 473.492188 315.886719 C 472.777344 313.78125 472.128906 311.652344 471.554688 309.507812 C 470.980469 307.359375 470.476562 305.195312 470.046875 303.015625 C 469.613281 300.832031 469.253906 298.640625 468.96875 296.4375 C 468.683594 294.230469 468.46875 292.019531 468.332031 289.800781 C 468.191406 287.582031 468.125 285.359375 468.136719 283.136719 C 468.417969 281.480469 468.757812 279.839844 469.15625 278.207031 C 469.554688 276.574219 470.011719 274.957031 470.527344 273.359375 C 471.039062 271.757812 471.609375 270.179688 472.234375 268.617188 C 472.855469 267.058594 473.535156 265.523438 474.269531 264.011719 C 475.003906 262.5 475.789062 261.015625 476.625 259.558594 C 477.464844 258.101562 478.351562 256.675781 479.292969 255.28125 C 480.230469 253.886719 481.21875 252.53125 482.25 251.203125 C 483.285156 249.878906 484.367188 248.59375 485.492188 247.347656 C 486.617188 246.097656 487.785156 244.890625 488.996094 243.726562 C 490.207031 242.558594 491.457031 241.4375 492.75 240.359375 C 494.039062 239.28125 495.367188 238.25 496.726562 237.265625 C 498.089844 236.28125 499.488281 235.347656 500.917969 234.460938 C 502.34375 233.578125 503.804688 232.742188 505.292969 231.960938 C 506.78125 231.175781 508.292969 230.445312 509.832031 229.769531 C 511.371094 229.09375 512.933594 228.472656 514.515625 227.90625 C 516.101562 227.339844 517.703125 226.832031 519.320312 226.378906 C 532.753906 219.320312 546.914062 214.320312 561.804688 211.378906 C 565.527344 211.296875 569.234375 211.496094 572.925781 211.980469 C 576.617188 212.464844 580.25 213.226562 583.824219 214.269531 C 587.398438 215.308594 590.871094 216.617188 594.246094 218.1875 C 597.621094 219.761719 600.855469 221.582031 603.949219 223.652344 C 616.933594 235.003906 628.308594 247.789062 638.070312 262.003906 C 641.839844 260.523438 645.65625 259.175781 649.515625 257.957031 C 653.378906 256.738281 657.277344 255.648438 661.210938 254.691406 C 665.144531 253.734375 669.105469 252.914062 673.097656 252.222656 C 677.085938 251.535156 681.097656 250.980469 685.125 250.5625 C 689.152344 250.144531 693.1875 249.863281 697.234375 249.71875 C 701.28125 249.574219 705.328125 249.5625 709.375 249.691406 C 713.421875 249.820312 717.460938 250.085938 721.488281 250.484375 C 725.519531 250.886719 729.53125 251.421875 733.523438 252.09375 C 737.515625 252.765625 741.480469 253.570312 745.421875 254.511719 C 749.359375 255.449219 753.261719 256.523438 757.128906 257.726562 C 760.992188 258.929688 764.816406 260.261719 768.589844 261.722656 C 772.367188 263.183594 776.089844 264.769531 779.757812 266.480469 C 783.425781 268.195312 787.03125 270.03125 790.574219 271.984375 C 794.121094 273.941406 797.59375 276.015625 800.996094 278.207031 C 804.402344 280.398438 807.726562 282.699219 810.976562 285.117188 C 814.222656 287.53125 817.386719 290.054688 820.464844 292.683594 C 844.863281 274.273438 868.75 252.628906 899.632812 261.320312 L 940.410156 292.171875 C 970.609375 315.351562 985.28125 347.398438 971.460938 374.328125 Z M 971.460938 374.328125 " fill-opacity="1" fill-rule="nonzero"/><path fill="#000000" d="M 690.453125 396.488281 C 688.921875 397.15625 687.425781 397.894531 685.960938 398.695312 C 684.496094 399.492188 683.066406 400.355469 681.675781 401.277344 C 680.285156 402.203125 678.9375 403.183594 677.628906 404.226562 C 676.324219 405.265625 675.066406 406.359375 673.855469 407.507812 C 672.644531 408.660156 671.488281 409.859375 670.378906 411.109375 C 669.273438 412.355469 668.222656 413.652344 667.226562 414.992188 C 666.234375 416.332031 665.300781 417.714844 664.425781 419.136719 C 663.550781 420.554688 662.738281 422.011719 661.988281 423.503906 C 661.242188 424.996094 660.558594 426.515625 659.941406 428.066406 C 659.324219 429.617188 658.777344 431.191406 658.296875 432.789062 C 657.816406 434.386719 657.40625 436.003906 657.066406 437.636719 C 656.726562 439.269531 656.460938 440.917969 656.261719 442.574219 C 656.0625 444.230469 655.9375 445.890625 655.886719 447.558594 C 655.832031 449.226562 655.851562 450.894531 655.941406 452.558594 C 656.035156 454.226562 656.199219 455.882812 656.433594 457.535156 C 656.667969 459.1875 656.976562 460.828125 657.351562 462.453125 C 659.175781 473.742188 660.199219 485.105469 660.421875 496.542969 C 664.882812 499.023438 669.511719 501.128906 674.3125 502.855469 C 679.113281 504.585938 684.023438 505.914062 689.042969 506.839844 C 694.0625 507.765625 699.121094 508.28125 704.226562 508.382812 C 709.328125 508.488281 714.40625 508.175781 719.457031 507.449219 C 727.304688 493.816406 731.230469 485.460938 736.519531 477.964844 C 737.40625 476.757812 738.242188 475.519531 739.027344 474.25 C 739.816406 472.980469 740.550781 471.679688 741.234375 470.351562 C 741.917969 469.023438 742.550781 467.667969 743.125 466.289062 C 743.703125 464.910156 744.222656 463.511719 744.691406 462.09375 C 745.15625 460.671875 745.5625 459.238281 745.917969 457.785156 C 746.269531 456.332031 746.5625 454.867188 746.796875 453.394531 C 747.035156 451.917969 747.210938 450.433594 747.328125 448.945312 C 747.449219 447.457031 747.507812 445.964844 747.507812 444.46875 C 747.507812 442.976562 747.449219 441.484375 747.328125 439.992188 C 747.210938 438.503906 747.035156 437.023438 746.796875 435.546875 C 746.5625 434.070312 746.269531 432.605469 745.917969 431.15625 C 745.5625 429.703125 745.15625 428.265625 744.691406 426.847656 C 744.222656 425.425781 743.703125 424.027344 743.125 422.648438 C 742.550781 421.269531 741.917969 419.917969 741.234375 418.585938 C 740.550781 417.257812 739.816406 415.957031 739.027344 414.6875 C 738.242188 413.417969 737.40625 412.179688 736.519531 410.976562 C 735.921875 410.066406 735.285156 409.183594 734.609375 408.328125 C 733.933594 407.472656 733.226562 406.648438 732.480469 405.855469 C 731.734375 405.058594 730.957031 404.300781 730.148438 403.570312 C 729.335938 402.84375 728.496094 402.152344 727.625 401.496094 C 726.757812 400.839844 725.859375 400.21875 724.9375 399.640625 C 724.015625 399.0625 723.070312 398.523438 722.101562 398.023438 C 721.132812 397.523438 720.144531 397.066406 719.136719 396.652344 C 718.128906 396.238281 717.105469 395.867188 716.066406 395.542969 C 715.027344 395.214844 713.976562 394.933594 712.910156 394.695312 C 711.847656 394.457031 710.777344 394.265625 709.695312 394.121094 C 708.617188 393.976562 707.53125 393.875 706.445312 393.824219 C 705.355469 393.769531 704.265625 393.765625 703.175781 393.804688 C 702.089844 393.84375 701.003906 393.933594 699.921875 394.066406 C 698.839844 394.199219 697.765625 394.378906 696.699219 394.601562 C 695.632812 394.828125 694.578125 395.097656 693.535156 395.410156 C 692.492188 395.726562 691.464844 396.085938 690.453125 396.488281 Z M 690.453125 396.488281 " fill-opacity="1" fill-rule="nonzero"/><path fill="#000000" d="M 778.148438 404.15625 C 777.3125 404.179688 776.480469 404.242188 775.652344 404.347656 C 774.820312 404.453125 773.996094 404.597656 773.183594 404.78125 C 772.367188 404.964844 771.5625 405.191406 770.765625 405.457031 C 769.972656 405.722656 769.195312 406.023438 768.433594 406.367188 C 767.667969 406.707031 766.921875 407.085938 766.195312 407.5 C 765.46875 407.914062 764.765625 408.363281 764.085938 408.847656 C 763.402344 409.332031 762.746094 409.851562 762.117188 410.398438 C 761.484375 410.949219 760.882812 411.527344 760.308594 412.136719 C 759.734375 412.746094 759.195312 413.378906 758.683594 414.042969 C 758.171875 414.703125 757.695312 415.390625 757.253906 416.097656 C 756.808594 416.808594 756.402344 417.535156 756.03125 418.285156 C 755.660156 419.035156 755.328125 419.800781 755.03125 420.582031 C 754.738281 421.363281 754.480469 422.160156 754.265625 422.96875 C 754.046875 423.773438 753.871094 424.589844 753.734375 425.414062 C 753.597656 426.238281 753.503906 427.070312 753.449219 427.902344 C 753.394531 428.738281 753.382812 429.570312 753.410156 430.40625 C 753.445312 431.242188 753.527344 432.078125 753.648438 432.90625 C 753.769531 433.734375 753.929688 434.554688 754.136719 435.367188 C 754.339844 436.179688 754.585938 436.976562 754.871094 437.765625 C 755.15625 438.550781 755.484375 439.324219 755.847656 440.078125 C 756.210938 440.832031 756.613281 441.5625 757.050781 442.277344 C 757.492188 442.992188 757.964844 443.679688 758.476562 444.34375 C 758.984375 445.011719 759.527344 445.648438 760.101562 446.257812 C 760.675781 446.867188 761.277344 447.449219 761.910156 447.996094 C 762.542969 448.546875 763.203125 449.0625 763.886719 449.542969 C 764.574219 450.027344 765.28125 450.472656 766.011719 450.882812 C 766.742188 451.292969 767.492188 451.664062 768.261719 451.996094 C 769.03125 452.332031 769.816406 452.625 770.613281 452.878906 C 771.410156 453.132812 772.222656 453.347656 773.042969 453.519531 C 773.863281 453.691406 774.6875 453.820312 775.523438 453.910156 C 776.355469 453.996094 777.191406 454.042969 778.03125 454.046875 C 778.867188 454.050781 779.703125 454.011719 780.539062 453.929688 C 781.371094 453.921875 782.203125 453.867188 783.027344 453.773438 C 783.855469 453.679688 784.675781 453.542969 785.492188 453.367188 C 786.304688 453.1875 787.105469 452.96875 787.898438 452.710938 C 788.6875 452.449219 789.464844 452.148438 790.222656 451.808594 C 790.984375 451.472656 791.726562 451.09375 792.445312 450.679688 C 793.167969 450.261719 793.867188 449.8125 794.542969 449.324219 C 795.21875 448.839844 795.867188 448.320312 796.488281 447.765625 C 797.109375 447.214844 797.703125 446.628906 798.265625 446.015625 C 798.828125 445.402344 799.355469 444.761719 799.855469 444.09375 C 800.351562 443.425781 800.8125 442.734375 801.238281 442.019531 C 801.664062 441.304688 802.050781 440.570312 802.402344 439.816406 C 802.753906 439.0625 803.0625 438.289062 803.335938 437.503906 C 803.605469 436.71875 803.835938 435.917969 804.027344 435.109375 C 804.214844 434.300781 804.363281 433.480469 804.46875 432.65625 C 804.578125 431.832031 804.640625 431.003906 804.660156 430.171875 C 804.683594 429.339844 804.660156 428.507812 804.597656 427.679688 C 804.5625 426.855469 804.492188 426.039062 804.375 425.222656 C 804.261719 424.40625 804.105469 423.597656 803.910156 422.796875 C 803.714844 422 803.480469 421.210938 803.203125 420.433594 C 802.929688 419.65625 802.617188 418.898438 802.265625 418.152344 C 801.910156 417.40625 801.523438 416.683594 801.097656 415.976562 C 800.671875 415.269531 800.214844 414.585938 799.71875 413.929688 C 799.226562 413.269531 798.699219 412.636719 798.144531 412.027344 C 797.585938 411.421875 797 410.84375 796.382812 410.296875 C 795.765625 409.75 795.125 409.234375 794.457031 408.75 C 793.789062 408.269531 793.101562 407.820312 792.386719 407.40625 C 791.675781 406.992188 790.941406 406.617188 790.191406 406.273438 C 789.441406 405.933594 788.675781 405.632812 787.894531 405.371094 C 787.113281 405.105469 786.320312 404.882812 785.515625 404.699219 C 784.710938 404.515625 783.902344 404.375 783.082031 404.273438 C 782.265625 404.171875 781.445312 404.109375 780.621094 404.089844 C 779.796875 404.070312 778.972656 404.09375 778.148438 404.15625 Z M 778.148438 404.15625 " fill-opacity="1" fill-rule="nonzero"/><path fill="#000000" d="M 632.953125 380.464844 C 632.117188 380.4375 631.285156 380.449219 630.449219 380.503906 C 629.617188 380.554688 628.789062 380.648438 627.964844 380.785156 C 627.140625 380.917969 626.324219 381.09375 625.515625 381.304688 C 624.707031 381.519531 623.914062 381.773438 623.128906 382.066406 C 622.347656 382.355469 621.582031 382.6875 620.832031 383.054688 C 620.082031 383.417969 619.351562 383.820312 618.640625 384.261719 C 617.929688 384.699219 617.242188 385.171875 616.574219 385.675781 C 615.910156 386.183594 615.273438 386.71875 614.660156 387.285156 C 614.050781 387.855469 613.464844 388.449219 612.914062 389.078125 C 612.359375 389.703125 611.835938 390.351562 611.347656 391.027344 C 610.859375 391.703125 610.402344 392.402344 609.980469 393.121094 C 609.558594 393.84375 609.175781 394.582031 608.824219 395.339844 C 608.476562 396.097656 608.167969 396.871094 607.894531 397.660156 C 607.621094 398.449219 607.386719 399.25 607.191406 400.0625 C 606.996094 400.875 606.84375 401.691406 606.726562 402.519531 C 606.613281 403.347656 606.539062 404.175781 606.507812 405.011719 C 606.5 405.84375 606.53125 406.671875 606.605469 407.5 C 606.675781 408.332031 606.789062 409.15625 606.941406 409.972656 C 607.089844 410.792969 607.28125 411.601562 607.507812 412.402344 C 607.734375 413.203125 608 413.988281 608.304688 414.765625 C 608.605469 415.539062 608.945312 416.300781 609.320312 417.042969 C 609.695312 417.785156 610.105469 418.507812 610.546875 419.214844 C 610.992188 419.917969 611.46875 420.597656 611.976562 421.257812 C 612.484375 421.917969 613.023438 422.550781 613.59375 423.15625 C 614.164062 423.765625 614.757812 424.34375 615.382812 424.894531 C 616.007812 425.445312 616.65625 425.96875 617.332031 426.457031 C 618.003906 426.945312 618.699219 427.402344 619.417969 427.824219 C 620.132812 428.25 620.871094 428.636719 621.625 428.992188 C 622.378906 429.34375 623.148438 429.660156 623.929688 429.941406 C 624.714844 430.222656 625.511719 430.464844 626.320312 430.667969 C 627.125 430.871094 627.941406 431.039062 628.765625 431.167969 C 629.589844 431.292969 630.414062 431.382812 631.246094 431.429688 C 632.074219 431.40625 632.902344 431.34375 633.722656 431.242188 C 634.546875 431.144531 635.363281 431.007812 636.175781 430.835938 C 636.988281 430.664062 637.789062 430.457031 638.582031 430.210938 C 639.371094 429.96875 640.152344 429.6875 640.917969 429.375 C 641.6875 429.0625 642.4375 428.714844 643.175781 428.335938 C 643.910156 427.953125 644.628906 427.539062 645.328125 427.097656 C 646.027344 426.652344 646.707031 426.175781 647.363281 425.671875 C 648.019531 425.164062 648.652344 424.632812 649.261719 424.070312 C 649.871094 423.507812 650.453125 422.921875 651.007812 422.304688 C 651.566406 421.691406 652.09375 421.054688 652.59375 420.394531 C 653.09375 419.734375 653.5625 419.050781 654 418.347656 C 654.4375 417.644531 654.84375 416.921875 655.21875 416.183594 C 655.589844 415.445312 655.929688 414.691406 656.238281 413.921875 C 656.542969 413.152344 656.8125 412.371094 657.050781 411.574219 C 657.285156 410.78125 657.488281 409.980469 657.652344 409.167969 C 657.816406 408.355469 657.941406 407.539062 658.035156 406.714844 C 658.023438 405.882812 657.976562 405.050781 657.890625 404.222656 C 657.800781 403.394531 657.675781 402.574219 657.511719 401.757812 C 657.347656 400.941406 657.144531 400.132812 656.902344 399.335938 C 656.664062 398.539062 656.386719 397.753906 656.070312 396.984375 C 655.757812 396.214844 655.40625 395.457031 655.023438 394.71875 C 654.636719 393.980469 654.21875 393.261719 653.765625 392.5625 C 653.3125 391.863281 652.828125 391.1875 652.3125 390.535156 C 651.792969 389.882812 651.25 389.253906 650.671875 388.652344 C 650.097656 388.050781 649.496094 387.476562 648.867188 386.929688 C 648.234375 386.382812 647.582031 385.867188 646.902344 385.382812 C 646.226562 384.898438 645.527344 384.449219 644.808594 384.027344 C 644.085938 383.609375 643.347656 383.226562 642.589844 382.875 C 641.835938 382.527344 641.0625 382.214844 640.277344 381.9375 C 639.492188 381.660156 638.695312 381.421875 637.886719 381.21875 C 637.078125 381.015625 636.261719 380.851562 635.4375 380.726562 C 634.613281 380.601562 633.785156 380.511719 632.953125 380.464844 Z M 632.953125 380.464844 " fill-opacity="1" fill-rule="nonzero"/><g clip-path="url(#7329b946e0)"><g clip-path="url(#eb2fabcba1)"><g clip-path="url(#1d96b1e6d2)"><g clip-path="url(#23c4a12671)"><path fill="#000000" d="M 736.828125 244.957031 C 734.683594 244.65625 732.613281 244.027344 730.605469 243.046875 L 637.621094 196.832031 C 635.207031 201.183594 633.492188 206.988281 632.28125 215.640625 C 638.132812 220.21875 643.296875 228.503906 641.507812 241.289062 C 640.414062 249.121094 635.710938 254.207031 631.824219 257.480469 C 643.945312 276.3125 682.074219 293.972656 729.0625 300.546875 C 788.273438 308.832031 838.9375 296.363281 842.242188 272.742188 C 842.972656 267.523438 845.957031 246.210938 848.882812 225.285156 L 743.308594 244.824219 C 741.136719 245.21875 738.972656 245.257812 736.828125 244.957031 Z M 736.828125 244.957031 " fill-opacity="1" fill-rule="nonzero"/></g></g></g></g><g clip-path="url(#29bb844ad3)"><g clip-path="url(#657aa67d21)"><g clip-path="url(#dcb489abb2)"><g clip-path="url(#f23818ebd8)"><path fill="#000000" d="M 911.554688 183.273438 L 758.273438 107.121094 C 756.945312 106.46875 755.484375 106.265625 754.039062 106.527344 L 585.746094 137.683594 C 582.886719 138.214844 580.675781 140.515625 580.273438 143.398438 C 579.871094 146.285156 581.359375 149.105469 583.96875 150.398438 L 619.105469 167.859375 C 609.246094 176.515625 602.375 189.710938 597.402344 212.046875 C 591.191406 213.980469 586.257812 219.265625 585.292969 226.160156 C 584.308594 233.175781 587.683594 239.734375 593.308594 243.269531 C 581.675781 288.210938 552.226562 299.613281 551.679688 303.515625 C 551.402344 305.5 570.960938 319.890625 575.984375 320.59375 C 583.757812 321.679688 604.253906 311.089844 608.242188 282.585938 C 610.59375 265.792969 610.855469 252.890625 610.519531 243.667969 C 615.257812 241.144531 618.921875 236.71875 619.726562 230.980469 C 620.601562 224.714844 617.839844 218.992188 613.261719 215.277344 C 621.304688 178.394531 633.6875 173.769531 663.148438 166.101562 C 666.089844 165.390625 671.65625 163.996094 674.871094 163.160156 C 680.65625 161.671875 685.878906 160.351562 690.890625 159.113281 C 707.058594 155.164062 720.6875 152.078125 731.070312 149.828125 C 742.421875 147.476562 747.46875 146.746094 747.652344 146.71875 C 751.988281 145.902344 756.28125 148.785156 757.113281 153.210938 C 757.929688 157.621094 755.039062 161.863281 750.621094 162.695312 C 750.285156 162.757812 730.71875 165.503906 678.9375 178.910156 C 675.609375 179.769531 672.441406 180.53125 669.429688 181.257812 C 663.308594 182.742188 658.238281 183.90625 653.949219 185.191406 L 737.242188 226.566406 C 737.910156 226.878906 738.589844 227.097656 739.3125 227.199219 C 740.035156 227.300781 740.75 227.277344 741.480469 227.144531 L 909.773438 195.988281 C 912.632812 195.460938 914.84375 193.15625 915.246094 190.273438 C 915.648438 187.390625 914.160156 184.570312 911.554688 183.273438 Z M 911.554688 183.273438 " fill-opacity="1" fill-rule="nonzero"/></g></g></g></g></svg>